{
  "asset": {
    "version": "2.0",
    "generator": "THREE.GLTFExporter"
  },
  "scenes": [
    {
      "name": "Scene",
      "nodes": [
        25
      ]
    }
  ],
  "scene": 0,
  "nodes": [
    {
      "name": "Icosphere001_1",
      "extras": {
        "name": "Icosphere001_1"
      },
      "mesh": 0
    },
    {
      "name": "Icosphere001_2",
      "extras": {
        "name": "Icosphere001_2"
      },
      "mesh": 1
    },
    {
      "matrix": [
        1,
        0,
        0,
        0,
        0,
        1,
        0,
        0,
        0,
        0,
        1,
        0,
        -0.014762639999389648,
        0.14310503005981445,
        0.06070110201835632,
        1
      ],
      "name": "Icosphere001",
      "extras": {
        "name": "Icosphere.001"
      },
      "children": [
        0,
        1
      ]
    },
    {
      "name": "earth1gltf",
      "extras": {
        "name": "earth1.gltf"
      },
      "children": [
        2
      ]
    },
    {
      "matrix": [
        1,
        0,
        0,
        0,
        0,
        1,
        0,
        0,
        0,
        0,
        1,
        0,
        -1.4509179623404218,
        0,
        0,
        1
      ],
      "name": "Cube_2",
      "extras": {
        "name": "Cube"
      },
      "mesh": 2
    },
    {
      "matrix": [
        0.32,
        0,
        0,
        0,
        0,
        0.08316406832587463,
        0.30900442996741856,
        0,
        0,
        -0.30900442996741856,
        0.08316406832587463,
        0,
        0.41320285127882306,
        1.5202215383105715,
        5.018108384658493,
        1
      ],
      "name": "factoryobj",
      "extras": {
        "name": "factory.obj"
      },
      "children": [
        4
      ]
    },
    {
      "matrix": [
        0.9569034374583567,
        0.014200252488536623,
        0.2900588978287725,
        0,
        0.16069459879356093,
        0.8060651120575122,
        -0.5695930837381076,
        0,
        -0.24189472358643332,
        0.5916564779945979,
        0.7690445726666764,
        0,
        -1.6725660862647793,
        0.34650648824147906,
        -0.15511288415291394,
        1
      ],
      "name": "Cube_3",
      "extras": {
        "name": "Cube"
      },
      "mesh": 2
    },
    {
      "matrix": [
        0.25858475939309833,
        -0.16134260639414913,
        0.09748069332722309,
        0,
        0.09167535310139854,
        0.2522297908753925,
        0.17428643730563106,
        0,
        -0.16471050920735852,
        -0.11291012335879565,
        0.25004350061490144,
        0,
        3.3231679671711443,
        4.0403821922072005,
        0.40948549881274676,
        1
      ],
      "name": "factoryobj_1",
      "extras": {
        "name": "factory.obj"
      },
      "children": [
        6
      ]
    },
    {
      "matrix": [
        -0.2908648018408132,
        -0.055189067149024246,
        -0.9551712182507245,
        0,
        0.5663932348819346,
        0.7946722518995321,
        -0.218391279344261,
        0,
        0.7711008639138174,
        -0.604524821887712,
        -0.19988347601878642,
        0,
        4.076245307922363,
        5.903861999511719,
        -1.0054539442062378,
        1
      ],
      "name": "Light",
      "extras": {
        "name": "Light"
      }
    },
    {
      "matrix": [
        0.6859206644277958,
        6.664776224243167e-9,
        -0.72767634204762,
        0,
        0.6515582342844146,
        0.44527141174037677,
        0.6141703889447102,
        0,
        0.3240134761779984,
        -0.8953956692734663,
        0.30542085645114714,
        0,
        7.358891487121582,
        4.958309173583984,
        6.925790786743164,
        1
      ],
      "name": "Camera",
      "extras": {
        "name": "Camera"
      }
    },
    {
      "name": "Cylinder_1",
      "extras": {
        "name": "Cylinder"
      },
      "mesh": 3
    },
    {
      "matrix": [
        1,
        0,
        0,
        0,
        0,
        1,
        0,
        0,
        0,
        0,
        1,
        0,
        0,
        7.552400638563347,
        0.0703378421387777,
        1
      ],
      "name": "nukeglb",
      "extras": {
        "name": "nuke.glb"
      },
      "children": [
        8,
        9,
        10
      ]
    },
    {
      "matrix": [
        -0.2908648018408132,
        -0.055189067149024246,
        -0.9551712182507245,
        0,
        0.5663932348819346,
        0.7946722518995321,
        -0.218391279344261,
        0,
        0.7711008639138174,
        -0.604524821887712,
        -0.19988347601878642,
        0,
        4.076245307922363,
        5.903861999511719,
        -1.0054539442062378,
        1
      ],
      "name": "Light_1",
      "extras": {
        "name": "Light"
      }
    },
    {
      "matrix": [
        0.6859206644277958,
        6.664776224243167e-9,
        -0.72767634204762,
        0,
        0.6515582342844146,
        0.44527141174037677,
        0.6141703889447102,
        0,
        0.3240134761779984,
        -0.8953956692734663,
        0.30542085645114714,
        0,
        7.358891487121582,
        4.958309173583984,
        6.925790786743164,
        1
      ],
      "name": "Camera_1",
      "extras": {
        "name": "Camera"
      }
    },
    {
      "name": "Cylinder_2",
      "extras": {
        "name": "Cylinder"
      },
      "mesh": 3
    },
    {
      "matrix": [
        0.5586105467416882,
        -0.8294300796745631,
        0,
        0,
        0.8294300796745631,
        0.5586105467416882,
        0,
        0,
        0,
        0,
        1,
        0,
        6.293956166834082,
        4.4354462598692015,
        0.0703378421387777,
        1
      ],
      "name": "nukeglb_1",
      "extras": {
        "name": "nuke.glb"
      },
      "children": [
        12,
        13,
        14
      ]
    },
    {
      "matrix": [
        -0.2908648018408132,
        -0.055189067149024246,
        -0.9551712182507245,
        0,
        0.5663932348819346,
        0.7946722518995321,
        -0.218391279344261,
        0,
        0.7711008639138174,
        -0.604524821887712,
        -0.19988347601878642,
        0,
        4.076245307922363,
        5.903861999511719,
        -1.0054539442062378,
        1
      ],
      "name": "Light_2",
      "extras": {
        "name": "Light"
      }
    },
    {
      "matrix": [
        0.6859206644277958,
        6.664776224243167e-9,
        -0.72767634204762,
        0,
        0.6515582342844146,
        0.44527141174037677,
        0.6141703889447102,
        0,
        0.3240134761779984,
        -0.8953956692734663,
        0.30542085645114714,
        0,
        7.358891487121582,
        4.958309173583984,
        6.925790786743164,
        1
      ],
      "name": "Camera_2",
      "extras": {
        "name": "Camera"
      }
    },
    {
      "matrix": [
        0.9434547237720593,
        -0.31181851308160896,
        -0.11252732597801136,
        0,
        0.32118131908832753,
        0.9438488143930377,
        0.07740785384919953,
        0,
        0.082071581323069,
        -0.1091724803621844,
        0.9906289038134811,
        0,
        4.509815716834276,
        -0.46880368970664305,
        -0.7017632518734778,
        1
      ],
      "name": "Cylinder_3",
      "extras": {
        "name": "Cylinder"
      },
      "mesh": 3
    },
    {
      "matrix": [
        0.607343153633954,
        -0.10233433956858673,
        -0.7878210308687021,
        0,
        -0.7881902625449457,
        -0.201758726746041,
        -0.581420266426228,
        0,
        -0.09945050911530295,
        0.9740744833568311,
        -0.20319571134703973,
        0,
        -7.126177736640239,
        -0.28185260961735503,
        -3.0665468199003687,
        1
      ],
      "name": "nukeglb_2",
      "extras": {
        "name": "nuke.glb"
      },
      "children": [
        16,
        17,
        18
      ]
    },
    {
      "matrix": [
        1,
        0,
        0,
        0,
        0,
        1,
        0,
        0,
        0,
        0,
        1,
        0,
        0,
        0,
        -1,
        1
      ]
    },
    {
      "matrix": [
        1,
        0,
        0,
        0,
        0,
        1,
        0,
        0,
        0,
        0,
        1,
        0,
        -12.810416608740933,
        2.708434256715252,
        18.460839889461724,
        1
      ],
      "name": "DirectionalLight",
      "extras": {
        "name": "DirectionalLight"
      },
      "children": [
        20
      ],
      "extensions": {
        "KHR_lights_punctual": {
          "light": 0
        }
      }
    },
    {
      "matrix": [
        0.23938204117862769,
        0.2123587491985056,
        0,
        0,
        -0.2123587491985056,
        0.23938204117862769,
        0,
        0,
        0,
        0,
        0.32,
        0,
        -3.435684473223419,
        4.02512594508368,
        0,
        1
      ],
      "name": "Cube",
      "extras": {
        "name": "Cube"
      },
      "mesh": 2
    },
    {
      "matrix": [
        -0.0038617742562950482,
        0.3167211459255171,
        0.04552803996682345,
        0,
        -0.19186870163798703,
        -0.03872968725533183,
        0.2531529432119194,
        0,
        0.2560693031804994,
        -0.024243082492361536,
        0.19037012612256693,
        0,
        -3.6576182704629474,
        -1.10820037122676,
        3.4294965724186923,
        1
      ],
      "name": "Cube_1",
      "extras": {
        "name": "Cube"
      },
      "mesh": 2
    },
    {
      "matrix": [
        0.5713096287118984,
        -0.7171591633033105,
        0.3991090610737479,
        0,
        -0.6407859794314918,
        -0.08590508750881143,
        0.7628981875087444,
        0,
        -0.5128339270222833,
        -0.6915945708507256,
        -0.5086239405147033,
        0,
        -5.227568685562826,
        -0.978315787024647,
        5.4190054628329145,
        1
      ],
      "name": "Cylinder",
      "extras": {
        "name": "Cylinder"
      },
      "mesh": 3
    },
    {
      "name": "earth5.gltf",
      "children": [
        3,
        5,
        7,
        11,
        15,
        19,
        21,
        22,
        23,
        24
      ]
    }
  ],
  "bufferViews": [
    {
      "buffer": 0,
      "byteOffset": 0,
      "byteLength": 22944,
      "target": 34962,
      "byteStride": 12
    },
    {
      "buffer": 0,
      "byteOffset": 22944,
      "byteLength": 22944,
      "target": 34962,
      "byteStride": 12
    },
    {
      "buffer": 0,
      "byteOffset": 45888,
      "byteLength": 15296,
      "target": 34962,
      "byteStride": 8
    },
    {
      "buffer": 0,
      "byteOffset": 61184,
      "byteLength": 4044,
      "target": 34963
    },
    {
      "buffer": 0,
      "byteOffset": 65228,
      "byteLength": 31248,
      "target": 34962,
      "byteStride": 12
    },
    {
      "buffer": 0,
      "byteOffset": 96476,
      "byteLength": 31248,
      "target": 34962,
      "byteStride": 12
    },
    {
      "buffer": 0,
      "byteOffset": 127724,
      "byteLength": 20832,
      "target": 34962,
      "byteStride": 8
    },
    {
      "buffer": 0,
      "byteOffset": 148556,
      "byteLength": 5556,
      "target": 34963
    },
    {
      "buffer": 0,
      "byteOffset": 154112,
      "byteLength": 9792,
      "target": 34962,
      "byteStride": 12
    },
    {
      "buffer": 0,
      "byteOffset": 163904,
      "byteLength": 9792,
      "target": 34962,
      "byteStride": 12
    },
    {
      "buffer": 0,
      "byteOffset": 173696,
      "byteLength": 6528,
      "target": 34962,
      "byteStride": 8
    },
    {
      "buffer": 0,
      "byteOffset": 180224,
      "byteLength": 56064,
      "target": 34962,
      "byteStride": 12
    },
    {
      "buffer": 0,
      "byteOffset": 236288,
      "byteLength": 56064,
      "target": 34962,
      "byteStride": 12
    },
    {
      "buffer": 0,
      "byteOffset": 292352,
      "byteLength": 37376,
      "target": 34962,
      "byteStride": 8
    },
    {
      "buffer": 0,
      "byteOffset": 329728,
      "byteLength": 14160,
      "target": 34963
    }
  ],
  "buffers": [
    {
      "byteLength": 343888,
      "uri": "data:application/octet-stream;base64,"
    }
  ],
  "accessors": [
    {
      "bufferView": 0,
      "componentType": 5126,
      "count": 1912,
      "max": [
        4.934632778167725,
        4.94576358795166,
        4.924015522003174
      ],
      "min": [
        -5.014838218688965,
        -5.04345703125,
        -5.014488220214844
      ],
      "type": "VEC3"
    },
    {
      "bufferView": 1,
      "componentType": 5126,
      "count": 1912,
      "max": [
        0.9994789958000183,
        0.9994176030158997,
        0.9991880655288696
      ],
      "min": [
        -0.997137725353241,
        -0.9989838004112244,
        -0.9999140501022339
      ],
      "type": "VEC3"
    },
    {
      "bufferView": 2,
      "componentType": 5126,
      "count": 1912,
      "max": [
        1.032392978668213,
        0.97065269947052
      ],
      "min": [
        -0.02795475721359253,
        0.03542649745941162
      ],
      "type": "VEC2"
    },
    {
      "bufferView": 3,
      "componentType": 5123,
      "count": 2022,
      "max": [
        1911
      ],
      "min": [
        0
      ],
      "type": "SCALAR"
    },
    {
      "bufferView": 4,
      "componentType": 5126,
      "count": 2604,
      "max": [
        5.045644760131836,
        5.11832332611084,
        5.151507377624512
      ],
      "min": [
        -4.940793991088867,
        -5.141870021820068,
        -4.301100730895996
      ],
      "type": "VEC3"
    },
    {
      "bufferView": 5,
      "componentType": 5126,
      "count": 2604,
      "max": [
        0.9988199472427368,
        0.999410092830658,
        0.9955257177352905
      ],
      "min": [
        -0.9938247203826904,
        -0.9996923208236694,
        -0.9911920428276062
      ],
      "type": "VEC3"
    },
    {
      "bufferView": 6,
      "componentType": 5126,
      "count": 2604,
      "max": [
        1.0089874267578125,
        0.97065269947052
      ],
      "min": [
        -0.025999363511800766,
        0.03542649745941162
      ],
      "type": "VEC2"
    },
    {
      "bufferView": 7,
      "componentType": 5123,
      "count": 2778,
      "max": [
        2603
      ],
      "min": [
        0
      ],
      "type": "SCALAR"
    },
    {
      "bufferView": 8,
      "componentType": 5126,
      "count": 816,
      "max": [
        2.545607089996338,
        2.676943063735962,
        2.296726942062378
      ],
      "min": [
        -1,
        -1,
        -2.4955830574035645
      ],
      "type": "VEC3"
    },
    {
      "bufferView": 9,
      "componentType": 5126,
      "count": 816,
      "max": [
        1,
        1,
        1
      ],
      "min": [
        -1,
        -1,
        -1
      ],
      "type": "VEC3"
    },
    {
      "bufferView": 10,
      "componentType": 5126,
      "count": 816,
      "max": [
        1,
        1
      ],
      "min": [
        0,
        0
      ],
      "type": "VEC2"
    },
    {
      "bufferView": 11,
      "componentType": 5126,
      "count": 4672,
      "max": [
        1.6926014423370361,
        1.131996989250183,
        1.6926016807556152
      ],
      "min": [
        -1.6926015615463257,
        -2.872673511505127,
        -1.6926013231277466
      ],
      "type": "VEC3"
    },
    {
      "bufferView": 12,
      "componentType": 5126,
      "count": 4672,
      "max": [
        0.9914594292640686,
        1,
        0.9914594888687134
      ],
      "min": [
        -0.9914594888687134,
        -1,
        -0.9914594888687134
      ],
      "type": "VEC3"
    },
    {
      "bufferView": 13,
      "componentType": 5126,
      "count": 4672,
      "max": [
        1.000000238418579,
        1
      ],
      "min": [
        0,
        0
      ],
      "type": "VEC2"
    },
    {
      "bufferView": 14,
      "componentType": 5123,
      "count": 7080,
      "max": [
        4671
      ],
      "min": [
        0
      ],
      "type": "SCALAR"
    }
  ],
  "materials": [
    {
      "pbrMetallicRoughness": {
        "baseColorFactor": [
          0.2,
          0.06274509803921569,
          0.06274509803921569,
          1
        ],
        "metallicFactor": 1,
        "roughnessFactor": 1
      },
      "doubleSided": true,
      "name": "water.001"
    },
    {
      "pbrMetallicRoughness": {
        "baseColorFactor": [
          0.11372549019607843,
          1,
          0.10196078431372549,
          1
        ],
        "metallicFactor": 1,
        "roughnessFactor": 1
      },
      "doubleSided": true,
      "name": "land.001"
    },
    {
      "pbrMetallicRoughness": {
        "baseColorFactor": [
          0.25098039215686274,
          0.25098039215686274,
          0.25098039215686274,
          1
        ],
        "metallicFactor": 0.5,
        "roughnessFactor": 0.5
      },
      "name": "Material"
    },
    {
      "pbrMetallicRoughness": {
        "baseColorFactor": [
          0.25098039215686274,
          0.25098039215686274,
          0.25098039215686274,
          1
        ],
        "metallicFactor": 0,
        "roughnessFactor": 0.5
      },
      "emissiveFactor": [
        0.09019607843137255,
        0.09019607843137255,
        0.09019607843137255
      ],
      "doubleSided": true,
      "name": "Material.001"
    }
  ],
  "meshes": [
    {
      "primitives": [
        {
          "mode": 4,
          "attributes": {
            "POSITION": 0,
            "NORMAL": 1,
            "TEXCOORD_0": 2
          },
          "indices": 3,
          "material": 0
        }
      ]
    },
    {
      "primitives": [
        {
          "mode": 4,
          "attributes": {
            "POSITION": 4,
            "NORMAL": 5,
            "TEXCOORD_0": 6
          },
          "indices": 7,
          "material": 1
        }
      ]
    },
    {
      "primitives": [
        {
          "mode": 4,
          "attributes": {
            "POSITION": 8,
            "NORMAL": 9,
            "TEXCOORD_0": 10
          },
          "material": 2
        }
      ]
    },
    {
      "primitives": [
        {
          "mode": 4,
          "attributes": {
            "POSITION": 11,
            "NORMAL": 12,
            "TEXCOORD_0": 13
          },
          "indices": 14,
          "material": 3
        }
      ]
    }
  ],
  "extensions": {
    "KHR_lights_punctual": {
      "lights": [
        {
          "name": "DirectionalLight",
          "color": [
            1,
            1,
            1
          ],
          "intensity": 3,
          "type": "directional"
        }
      ]
    }
  },
  "extensionsUsed": [
    "KHR_lights_punctual"
  ]
}