{
  "asset": {
    "version": "2.0",
    "generator": "THREE.GLTFExporter"
  },
  "scenes": [
    {
      "name": "Scene",
      "nodes": [
        3,
        5,
        6,
        8,
        9,
        10,
        14,
        18,
        22,
        26
      ]
    }
  ],
  "scene": 0,
  "nodes": [
    {
      "name": "Icosphere001_1",
      "extras": {
        "name": "Icosphere001_1"
      },
      "mesh": 0
    },
    {
      "name": "Icosphere001_2",
      "extras": {
        "name": "Icosphere001_2"
      },
      "mesh": 1
    },
    {
      "matrix": [
        1,
        0,
        0,
        0,
        0,
        1,
        0,
        0,
        0,
        0,
        1,
        0,
        -0.014762639999389648,
        0.14310503005981445,
        0.06070110201835632,
        1
      ],
      "name": "Icosphere001",
      "extras": {
        "name": "Icosphere.001"
      },
      "children": [
        0,
        1
      ]
    },
    {
      "name": "earth1.gltf",
      "children": [
        2
      ]
    },
    {
      "matrix": [
        1,
        0,
        0,
        0,
        0,
        1,
        0,
        0,
        0,
        0,
        1,
        0,
        -1.4509179623404218,
        0,
        0,
        1
      ],
      "name": "Cube",
      "mesh": 2
    },
    {
      "matrix": [
        0.32,
        0,
        0,
        0,
        0,
        0.08316406832587468,
        0.30900442996741856,
        0,
        0,
        -0.30900442996741856,
        0.08316406832587468,
        0,
        0.41320285127882306,
        1.5202215383105715,
        5.018108384658493,
        1
      ],
      "name": "factory.obj",
      "children": [
        4
      ]
    },
    {
      "matrix": [
        1,
        0,
        0,
        0,
        0,
        1,
        0,
        0,
        0,
        0,
        1,
        0,
        12.77733501158135,
        2.708434256715252,
        7.673318785719559,
        1
      ],
      "name": "DirectionalLight",
      "extensions": {
        "KHR_lights_punctual": {
          "light": 0
        }
      }
    },
    {
      "matrix": [
        0.9569034374583568,
        0.014200252488536624,
        0.29005889782877253,
        0,
        0.16069459879356093,
        0.8060651120575122,
        -0.5695930837381076,
        0,
        -0.24189472358643332,
        0.5916564779945979,
        0.7690445726666764,
        0,
        -1.6725660862647793,
        0.34650648824147906,
        -0.15511288415291394,
        1
      ],
      "name": "Cube",
      "mesh": 2
    },
    {
      "matrix": [
        0.25858475939309833,
        -0.16134260639414913,
        0.09748069332722309,
        0,
        0.09167535310139854,
        0.2522297908753925,
        0.17428643730563106,
        0,
        -0.16471050920735852,
        -0.11291012335879565,
        0.25004350061490144,
        0,
        3.3231679671711443,
        4.0403821922072005,
        0.40948549881274676,
        1
      ],
      "name": "factory.obj",
      "children": [
        7
      ]
    },
    {
      "matrix": [
        0.23938204117862769,
        0.2123587491985056,
        0,
        0,
        -0.2123587491985056,
        0.23938204117862769,
        0,
        0,
        0,
        0,
        0.32,
        0,
        -3.435684473223419,
        4.02512594508368,
        0,
        1
      ],
      "name": "Cube",
      "mesh": 2
    },
    {
      "matrix": [
        -0.00386177425629505,
        0.3167211459255171,
        0.0455280399668235,
        0,
        -0.19186870163798694,
        -0.03872968725533184,
        0.2531529432119194,
        0,
        0.2560693031804994,
        -0.02424308249236148,
        0.1903701261225669,
        0,
        -3.6576182704629474,
        -1.10820037122676,
        3.4294965724186923,
        1
      ],
      "name": "Cube",
      "mesh": 2
    },
    {
      "name": "Sphere",
      "mesh": 3
    },
    {
      "name": "Sphere.001",
      "mesh": 4
    },
    {
      "name": "Sphere.002",
      "mesh": 5
    },
    {
      "matrix": [
        0.43031664836297145,
        0.2546126119061245,
        0,
        0,
        -0.2546126119061245,
        0.43031664836297145,
        0,
        0,
        0,
        0,
        0.5,
        0,
        -3.3135432226441788,
        6.894963326429332,
        0.023674126931384265,
        1
      ],
      "name": "ufo.obj",
      "children": [
        11,
        12,
        13
      ]
    },
    {
      "name": "Sphere",
      "mesh": 3
    },
    {
      "name": "Sphere.001",
      "mesh": 4
    },
    {
      "name": "Sphere.002",
      "mesh": 5
    },
    {
      "matrix": [
        0.5,
        0,
        0,
        0,
        0,
        1.1102230246251565e-16,
        0.5,
        0,
        0,
        -0.5,
        1.1102230246251565e-16,
        0,
        0.877163895945575,
        1.1927151288421776,
        7.016808227718325,
        1
      ],
      "name": "ufo.obj",
      "children": [
        15,
        16,
        17
      ]
    },
    {
      "name": "Sphere",
      "mesh": 3
    },
    {
      "name": "Sphere.001",
      "mesh": 4
    },
    {
      "name": "Sphere.002",
      "mesh": 5
    },
    {
      "matrix": [
        0.35355339059327373,
        1.3877787807814457e-16,
        0.3535533905932738,
        0,
        -0.35355339059327384,
        1.1102230246251565e-16,
        0.3535533905932738,
        0,
        0,
        -0.5,
        1.6653345369377348e-16,
        0,
        -5.757340421412938,
        -0.523368146473602,
        4.8994676670143615,
        1
      ],
      "name": "ufo.obj",
      "children": [
        19,
        20,
        21
      ]
    },
    {
      "name": "Sphere",
      "mesh": 3
    },
    {
      "name": "Sphere.001",
      "mesh": 4
    },
    {
      "name": "Sphere.002",
      "mesh": 5
    },
    {
      "matrix": [
        -0.11098362010313034,
        0.03509420817484324,
        -0.4862623084523258,
        0,
        0.46564476398720434,
        0.155362693378711,
        -0.0950651738409681,
        0,
        0.1444215698575006,
        -0.4739523499875208,
        -0.0671682968460694,
        0,
        5.8858170223899835,
        3.6497956112455636,
        -0.2933529723042234,
        1
      ],
      "name": "ufo.obj",
      "children": [
        23,
        24,
        25
      ]
    }
  ],
  "bufferViews": [
    {
      "buffer": 0,
      "byteOffset": 0,
      "byteLength": 22944,
      "target": 34962,
      "byteStride": 12
    },
    {
      "buffer": 0,
      "byteOffset": 22944,
      "byteLength": 22944,
      "target": 34962,
      "byteStride": 12
    },
    {
      "buffer": 0,
      "byteOffset": 45888,
      "byteLength": 15296,
      "target": 34962,
      "byteStride": 8
    },
    {
      "buffer": 0,
      "byteOffset": 61184,
      "byteLength": 4044,
      "target": 34963
    },
    {
      "buffer": 0,
      "byteOffset": 65228,
      "byteLength": 31248,
      "target": 34962,
      "byteStride": 12
    },
    {
      "buffer": 0,
      "byteOffset": 96476,
      "byteLength": 31248,
      "target": 34962,
      "byteStride": 12
    },
    {
      "buffer": 0,
      "byteOffset": 127724,
      "byteLength": 20832,
      "target": 34962,
      "byteStride": 8
    },
    {
      "buffer": 0,
      "byteOffset": 148556,
      "byteLength": 5556,
      "target": 34963
    },
    {
      "buffer": 0,
      "byteOffset": 154112,
      "byteLength": 9792,
      "target": 34962,
      "byteStride": 12
    },
    {
      "buffer": 0,
      "byteOffset": 163904,
      "byteLength": 9792,
      "target": 34962,
      "byteStride": 12
    },
    {
      "buffer": 0,
      "byteOffset": 173696,
      "byteLength": 6528,
      "target": 34962,
      "byteStride": 8
    },
    {
      "buffer": 0,
      "byteOffset": 180224,
      "byteLength": 34560,
      "target": 34962,
      "byteStride": 12
    },
    {
      "buffer": 0,
      "byteOffset": 214784,
      "byteLength": 34560,
      "target": 34962,
      "byteStride": 12
    },
    {
      "buffer": 0,
      "byteOffset": 249344,
      "byteLength": 23040,
      "target": 34962,
      "byteStride": 8
    },
    {
      "buffer": 0,
      "byteOffset": 272384,
      "byteLength": 2232,
      "target": 34962,
      "byteStride": 12
    },
    {
      "buffer": 0,
      "byteOffset": 274616,
      "byteLength": 2232,
      "target": 34962,
      "byteStride": 12
    },
    {
      "buffer": 0,
      "byteOffset": 276848,
      "byteLength": 1488,
      "target": 34962,
      "byteStride": 8
    },
    {
      "buffer": 0,
      "byteOffset": 278336,
      "byteLength": 41472,
      "target": 34962,
      "byteStride": 12
    },
    {
      "buffer": 0,
      "byteOffset": 319808,
      "byteLength": 41472,
      "target": 34962,
      "byteStride": 12
    },
    {
      "buffer": 0,
      "byteOffset": 361280,
      "byteLength": 27648,
      "target": 34962,
      "byteStride": 8
    }
  ],
  "buffers": [
    {
      "byteLength": 388928,
      "uri": "data:application/octet-stream;base64,"
    }
  ],
  "accessors": [
    {
      "bufferView": 0,
      "componentType": 5126,
      "count": 1912,
      "max": [
        4.934632778167725,
        4.94576358795166,
        4.924015522003174
      ],
      "min": [
        -5.014838218688965,
        -5.04345703125,
        -5.014488220214844
      ],
      "type": "VEC3"
    },
    {
      "bufferView": 1,
      "componentType": 5126,
      "count": 1912,
      "max": [
        0.9994789958000183,
        0.9994176030158997,
        0.9991880655288696
      ],
      "min": [
        -0.997137725353241,
        -0.9989838004112244,
        -0.9999140501022339
      ],
      "type": "VEC3"
    },
    {
      "bufferView": 2,
      "componentType": 5126,
      "count": 1912,
      "max": [
        1.032392978668213,
        0.97065269947052
      ],
      "min": [
        -0.02795475721359253,
        0.03542649745941162
      ],
      "type": "VEC2"
    },
    {
      "bufferView": 3,
      "componentType": 5123,
      "count": 2022,
      "max": [
        1911
      ],
      "min": [
        0
      ],
      "type": "SCALAR"
    },
    {
      "bufferView": 4,
      "componentType": 5126,
      "count": 2604,
      "max": [
        5.045644760131836,
        5.11832332611084,
        5.151507377624512
      ],
      "min": [
        -4.940793991088867,
        -5.141870021820068,
        -4.301100730895996
      ],
      "type": "VEC3"
    },
    {
      "bufferView": 5,
      "componentType": 5126,
      "count": 2604,
      "max": [
        0.9988199472427368,
        0.999410092830658,
        0.9955257177352905
      ],
      "min": [
        -0.9938247203826904,
        -0.9996923208236694,
        -0.9911920428276062
      ],
      "type": "VEC3"
    },
    {
      "bufferView": 6,
      "componentType": 5126,
      "count": 2604,
      "max": [
        1.0089874267578125,
        0.97065269947052
      ],
      "min": [
        -0.025999363511800766,
        0.03542649745941162
      ],
      "type": "VEC2"
    },
    {
      "bufferView": 7,
      "componentType": 5123,
      "count": 2778,
      "max": [
        2603
      ],
      "min": [
        0
      ],
      "type": "SCALAR"
    },
    {
      "bufferView": 8,
      "componentType": 5126,
      "count": 816,
      "max": [
        2.545607089996338,
        2.676943063735962,
        2.296726942062378
      ],
      "min": [
        -1,
        -1,
        -2.4955830574035645
      ],
      "type": "VEC3"
    },
    {
      "bufferView": 9,
      "componentType": 5126,
      "count": 816,
      "max": [
        1,
        1,
        1
      ],
      "min": [
        -1,
        -1,
        -1
      ],
      "type": "VEC3"
    },
    {
      "bufferView": 10,
      "componentType": 5126,
      "count": 816,
      "max": [
        1,
        1
      ],
      "min": [
        0,
        0
      ],
      "type": "VEC2"
    },
    {
      "bufferView": 11,
      "componentType": 5126,
      "count": 2880,
      "max": [
        1.1716560125350952,
        1.1716560125350952,
        1.1716560125350952
      ],
      "min": [
        -1.1716560125350952,
        -0.5703009963035583,
        -1.1716560125350952
      ],
      "type": "VEC3"
    },
    {
      "bufferView": 12,
      "componentType": 5126,
      "count": 2880,
      "max": [
        0.9904000163078308,
        0.9951000213623047,
        0.9904000163078308
      ],
      "min": [
        -0.9904000163078308,
        -0.9994000196456909,
        -0.9904000163078308
      ],
      "type": "VEC3"
    },
    {
      "bufferView": 13,
      "componentType": 5126,
      "count": 2880,
      "max": [
        1,
        1
      ],
      "min": [
        0,
        0
      ],
      "type": "VEC2"
    },
    {
      "bufferView": 14,
      "componentType": 5126,
      "count": 186,
      "max": [
        1,
        0.5470139980316162,
        1
      ],
      "min": [
        -1,
        -4.528065204620361,
        -1
      ],
      "type": "VEC3"
    },
    {
      "bufferView": 15,
      "componentType": 5126,
      "count": 186,
      "max": [
        0.9765999913215637,
        0.1923999935388565,
        0.9765999913215637
      ],
      "min": [
        -0.9765999913215637,
        -1,
        -0.9765999913215637
      ],
      "type": "VEC3"
    },
    {
      "bufferView": 16,
      "componentType": 5126,
      "count": 186,
      "max": [
        0.9900000095367432,
        0.49000000953674316
      ],
      "min": [
        0.009999999776482582,
        0.009999999776482582
      ],
      "type": "VEC2"
    },
    {
      "bufferView": 17,
      "componentType": 5126,
      "count": 3456,
      "max": [
        1.6841590404510498,
        0.3368319869041443,
        1.6841590404510498
      ],
      "min": [
        -1.6841590404510498,
        -0.3368319869041443,
        -1.6841590404510498
      ],
      "type": "VEC3"
    },
    {
      "bufferView": 18,
      "componentType": 5126,
      "count": 3456,
      "max": [
        0.9639999866485596,
        0.9657999873161316,
        0.9639999866485596
      ],
      "min": [
        -0.9639999866485596,
        -0.9657999873161316,
        -0.9639999866485596
      ],
      "type": "VEC3"
    },
    {
      "bufferView": 19,
      "componentType": 5126,
      "count": 3456,
      "max": [
        1,
        1
      ],
      "min": [
        0,
        0
      ],
      "type": "VEC2"
    }
  ],
  "materials": [
    {
      "pbrMetallicRoughness": {
        "baseColorFactor": [
          0.2,
          0.06274509803921569,
          0.06274509803921569,
          1
        ],
        "metallicFactor": 1,
        "roughnessFactor": 1
      },
      "doubleSided": true,
      "name": "water.001"
    },
    {
      "pbrMetallicRoughness": {
        "baseColorFactor": [
          0.11372549019607843,
          1,
          0.10196078431372549,
          1
        ],
        "metallicFactor": 1,
        "roughnessFactor": 1
      },
      "doubleSided": true,
      "name": "land.001"
    },
    {
      "pbrMetallicRoughness": {
        "baseColorFactor": [
          0.25098039215686274,
          0.25098039215686274,
          0.25098039215686274,
          1
        ],
        "metallicFactor": 0.5,
        "roughnessFactor": 0.5
      },
      "name": "Material"
    },
    {
      "pbrMetallicRoughness": {
        "baseColorFactor": [
          0,
          0.5215686274509804,
          0.03529411764705882,
          1
        ],
        "metallicFactor": 0,
        "roughnessFactor": 1
      }
    },
    {
      "pbrMetallicRoughness": {
        "baseColorFactor": [
          0,
          0.0784313725490196,
          0.1607843137254902,
          0.8
        ],
        "metallicFactor": 0.5,
        "roughnessFactor": 0.5
      },
      "alphaMode": "BLEND",
      "name": "None"
    },
    {
      "pbrMetallicRoughness": {
        "baseColorFactor": [
          0.12156862745098039,
          0.12156862745098039,
          0.12156862745098039,
          1
        ],
        "metallicFactor": 0,
        "roughnessFactor": 1
      }
    }
  ],
  "meshes": [
    {
      "primitives": [
        {
          "mode": 4,
          "attributes": {
            "POSITION": 0,
            "NORMAL": 1,
            "TEXCOORD_0": 2
          },
          "indices": 3,
          "material": 0
        }
      ]
    },
    {
      "primitives": [
        {
          "mode": 4,
          "attributes": {
            "POSITION": 4,
            "NORMAL": 5,
            "TEXCOORD_0": 6
          },
          "indices": 7,
          "material": 1
        }
      ]
    },
    {
      "primitives": [
        {
          "mode": 4,
          "attributes": {
            "POSITION": 8,
            "NORMAL": 9,
            "TEXCOORD_0": 10
          },
          "material": 2
        }
      ]
    },
    {
      "primitives": [
        {
          "mode": 4,
          "attributes": {
            "POSITION": 11,
            "NORMAL": 12,
            "TEXCOORD_0": 13
          },
          "material": 3
        }
      ]
    },
    {
      "primitives": [
        {
          "mode": 4,
          "attributes": {
            "POSITION": 14,
            "NORMAL": 15,
            "TEXCOORD_0": 16
          },
          "material": 4
        }
      ]
    },
    {
      "primitives": [
        {
          "mode": 4,
          "attributes": {
            "POSITION": 17,
            "NORMAL": 18,
            "TEXCOORD_0": 19
          },
          "material": 5
        }
      ]
    }
  ],
  "extensions": {
    "KHR_lights_punctual": {
      "lights": [
        {
          "name": "DirectionalLight",
          "color": [
            1,
            1,
            1
          ],
          "intensity": 3,
          "type": "directional"
        }
      ]
    }
  },
  "extensionsUsed": [
    "KHR_lights_punctual"
  ]
}