{
  "asset": {
    "version": "2.0",
    "generator": "THREE.GLTFExporter"
  },
  "scenes": [
    {
      "name": "Scene",
      "nodes": [
        3
      ]
    }
  ],
  "scene": 0,
  "nodes": [
    {
      "name": "Icosphere001_1",
      "extras": {
        "name": "Icosphere001_1"
      },
      "mesh": 0
    },
    {
      "name": "Icosphere001_2",
      "extras": {
        "name": "Icosphere001_2"
      },
      "mesh": 1
    },
    {
      "matrix": [
        1,
        0,
        0,
        0,
        0,
        1,
        0,
        0,
        0,
        0,
        1,
        0,
        -0.014762639999389648,
        0.14310503005981445,
        0.06070110201835632,
        1
      ],
      "name": "Icosphere001",
      "extras": {
        "name": "Icosphere.001"
      },
      "children": [
        0,
        1
      ]
    },
    {
      "name": "earth1.gltf",
      "children": [
        2
      ]
    }
  ],
  "bufferViews": [
    {
      "buffer": 0,
      "byteOffset": 0,
      "byteLength": 22944,
      "target": 34962,
      "byteStride": 12
    },
    {
      "buffer": 0,
      "byteOffset": 22944,
      "byteLength": 22944,
      "target": 34962,
      "byteStride": 12
    },
    {
      "buffer": 0,
      "byteOffset": 45888,
      "byteLength": 15296,
      "target": 34962,
      "byteStride": 8
    },
    {
      "buffer": 0,
      "byteOffset": 61184,
      "byteLength": 4044,
      "target": 34963
    },
    {
      "buffer": 0,
      "byteOffset": 65228,
      "byteLength": 31248,
      "target": 34962,
      "byteStride": 12
    },
    {
      "buffer": 0,
      "byteOffset": 96476,
      "byteLength": 31248,
      "target": 34962,
      "byteStride": 12
    },
    {
      "buffer": 0,
      "byteOffset": 127724,
      "byteLength": 20832,
      "target": 34962,
      "byteStride": 8
    },
    {
      "buffer": 0,
      "byteOffset": 148556,
      "byteLength": 5556,
      "target": 34963
    }
  ],
  "buffers": [
    {
      "byteLength": 154112,
      "uri": "data:application/octet-stream;base64,"
    }
  ],
  "accessors": [
    {
      "bufferView": 0,
      "componentType": 5126,
      "count": 1912,
      "max": [
        4.934632778167725,
        4.94576358795166,
        4.924015522003174
      ],
      "min": [
        -5.014838218688965,
        -5.04345703125,
        -5.014488220214844
      ],
      "type": "VEC3"
    },
    {
      "bufferView": 1,
      "componentType": 5126,
      "count": 1912,
      "max": [
        0.9994789958000183,
        0.9994176030158997,
        0.9991880655288696
      ],
      "min": [
        -0.997137725353241,
        -0.9989838004112244,
        -0.9999140501022339
      ],
      "type": "VEC3"
    },
    {
      "bufferView": 2,
      "componentType": 5126,
      "count": 1912,
      "max": [
        1.032392978668213,
        0.97065269947052
      ],
      "min": [
        -0.02795475721359253,
        0.03542649745941162
      ],
      "type": "VEC2"
    },
    {
      "bufferView": 3,
      "componentType": 5123,
      "count": 2022,
      "max": [
        1911
      ],
      "min": [
        0
      ],
      "type": "SCALAR"
    },
    {
      "bufferView": 4,
      "componentType": 5126,
      "count": 2604,
      "max": [
        5.045644760131836,
        5.11832332611084,
        5.151507377624512
      ],
      "min": [
        -4.940793991088867,
        -5.141870021820068,
        -4.301100730895996
      ],
      "type": "VEC3"
    },
    {
      "bufferView": 5,
      "componentType": 5126,
      "count": 2604,
      "max": [
        0.9988199472427368,
        0.999410092830658,
        0.9955257177352905
      ],
      "min": [
        -0.9938247203826904,
        -0.9996923208236694,
        -0.9911920428276062
      ],
      "type": "VEC3"
    },
    {
      "bufferView": 6,
      "componentType": 5126,
      "count": 2604,
      "max": [
        1.0089874267578125,
        0.97065269947052
      ],
      "min": [
        -0.025999363511800766,
        0.03542649745941162
      ],
      "type": "VEC2"
    },
    {
      "bufferView": 7,
      "componentType": 5123,
      "count": 2778,
      "max": [
        2603
      ],
      "min": [
        0
      ],
      "type": "SCALAR"
    }
  ],
  "materials": [
    {
      "pbrMetallicRoughness": {
        "baseColorFactor": [
          0.058823529411764705,
          0.5607843137254902,
          1,
          1
        ],
        "metallicFactor": 1,
        "roughnessFactor": 1
      },
      "doubleSided": true,
      "name": "water.001"
    },
    {
      "pbrMetallicRoughness": {
        "baseColorFactor": [
          0.11372549019607843,
          1,
          0.10196078431372549,
          1
        ],
        "metallicFactor": 1,
        "roughnessFactor": 1
      },
      "doubleSided": true,
      "name": "land.001"
    }
  ],
  "meshes": [
    {
      "primitives": [
        {
          "mode": 4,
          "attributes": {
            "POSITION": 0,
            "NORMAL": 1,
            "TEXCOORD_0": 2
          },
          "indices": 3,
          "material": 0
        }
      ]
    },
    {
      "primitives": [
        {
          "mode": 4,
          "attributes": {
            "POSITION": 4,
            "NORMAL": 5,
            "TEXCOORD_0": 6
          },
          "indices": 7,
          "material": 1
        }
      ]
    }
  ]
}