{
  "asset": {
    "version": "2.0",
    "generator": "THREE.GLTFExporter"
  },
  "scenes": [
    {
      "name": "Scene",
      "nodes": [
        10
      ]
    }
  ],
  "scene": 0,
  "nodes": [
    {
      "name": "earth1gltf",
      "extras": {
        "name": "earth1.gltf"
      }
    },
    {
      "matrix": [
        0.3199999928474426,
        0,
        0,
        0,
        0,
        0.08316403466765963,
        0.3090044438801571,
        0,
        0,
        -0.3090044438801571,
        0.08316403466765963,
        0,
        0.41320285201072693,
        1.5202215909957886,
        5.018108367919922,
        1
      ],
      "name": "factoryobj",
      "extras": {
        "name": "factory.obj"
      }
    },
    {
      "matrix": [
        0.9569034384971886,
        0.014200260206914006,
        0.2900588958608683,
        0,
        0.160694599771793,
        0.8060650897658068,
        -0.5695931192182211,
        0,
        -0.2418947210299418,
        0.591656512232068,
        0.7690445508437147,
        0,
        -1.6725660562515259,
        0.3465064764022827,
        -0.1551128774881363,
        1
      ],
      "name": "Cube001",
      "extras": {
        "name": "Cube.001"
      },
      "mesh": 0
    },
    {
      "matrix": [
        0.2585847508743151,
        -0.16134260466077308,
        0.09748068337967906,
        0,
        0.09167535007360071,
        0.25222977968668847,
        0.17428643459245527,
        0,
        -0.16471050330739237,
        -0.11291011918931323,
        0.250043491930734,
        0,
        3.3231680393218994,
        4.040382385253906,
        0.40948548913002014,
        1
      ],
      "name": "factoryobj001",
      "extras": {
        "name": "factory.obj.001"
      },
      "children": [
        2
      ]
    },
    {
      "matrix": [
        -0.2908647428269262,
        -0.055189063886274425,
        -0.9551712048106182,
        0,
        0.5663932381446841,
        0.7946722584579202,
        -0.21839122503485697,
        0,
        0.7711008773539234,
        -0.6045247675783045,
        -0.19988344806390224,
        0,
        4.076245307922363,
        5.903861999511719,
        -1.0054539442062378,
        1
      ],
      "name": "Light",
      "extras": {
        "name": "Light"
      }
    },
    {
      "matrix": [
        0.6859206666375535,
        -4.011331711240018e-9,
        -0.7276763385868836,
        0,
        0.6515582236083066,
        0.4452714146389205,
        0.6141703952861253,
        0,
        0.32401347963873484,
        -0.8953956629320512,
        0.30542086411130853,
        0,
        7.358891487121582,
        4.958309173583984,
        6.925790786743164,
        1
      ],
      "name": "Camera",
      "extras": {
        "name": "Camera"
      }
    },
    {
      "name": "Icosphere001_1",
      "extras": {
        "name": "Icosphere001_1"
      },
      "mesh": 1
    },
    {
      "name": "Icosphere001_2",
      "extras": {
        "name": "Icosphere001_2"
      },
      "mesh": 2
    },
    {
      "matrix": [
        0.23938202146962492,
        0.21235876065777778,
        0,
        0,
        -0.21235876065777778,
        0.23938202146962492,
        0,
        0,
        0,
        0,
        0.3199999928474426,
        0,
        -3.4356844425201416,
        4.025125980377197,
        0,
        1
      ],
      "name": "Cube002",
      "extras": {
        "name": "Cube.002"
      },
      "mesh": 0
    },
    {
      "matrix": [
        -0.003861764444979053,
        0.3167211423369535,
        0.045528019759920754,
        0,
        -0.191868685210223,
        -0.03872966669997624,
        0.25315295061676846,
        0,
        0.2560693074583224,
        -0.024243076682857585,
        0.19037010949392683,
        0,
        -3.657618284225464,
        -1.1082003116607666,
        3.4294965267181396,
        1
      ],
      "name": "Cube003",
      "extras": {
        "name": "Cube.003"
      },
      "mesh": 0
    },
    {
      "name": "broken.glb",
      "children": [
        0,
        1,
        3,
        4,
        5,
        6,
        7,
        8,
        9
      ]
    }
  ],
  "bufferViews": [
    {
      "buffer": 0,
      "byteOffset": 0,
      "byteLength": 9792,
      "target": 34962,
      "byteStride": 12
    },
    {
      "buffer": 0,
      "byteOffset": 9792,
      "byteLength": 9792,
      "target": 34962,
      "byteStride": 12
    },
    {
      "buffer": 0,
      "byteOffset": 19584,
      "byteLength": 6528,
      "target": 34962,
      "byteStride": 8
    },
    {
      "buffer": 0,
      "byteOffset": 26112,
      "byteLength": 1632,
      "target": 34963
    },
    {
      "buffer": 0,
      "byteOffset": 27744,
      "byteLength": 22128,
      "target": 34962,
      "byteStride": 12
    },
    {
      "buffer": 0,
      "byteOffset": 49872,
      "byteLength": 22128,
      "target": 34962,
      "byteStride": 12
    },
    {
      "buffer": 0,
      "byteOffset": 72000,
      "byteLength": 14752,
      "target": 34962,
      "byteStride": 8
    },
    {
      "buffer": 0,
      "byteOffset": 86752,
      "byteLength": 4712,
      "target": 34963
    },
    {
      "buffer": 0,
      "byteOffset": 91464,
      "byteLength": 25152,
      "target": 34962,
      "byteStride": 12
    },
    {
      "buffer": 0,
      "byteOffset": 116616,
      "byteLength": 25152,
      "target": 34962,
      "byteStride": 12
    },
    {
      "buffer": 0,
      "byteOffset": 141768,
      "byteLength": 16768,
      "target": 34962,
      "byteStride": 8
    },
    {
      "buffer": 0,
      "byteOffset": 158536,
      "byteLength": 4512,
      "target": 34963
    }
  ],
  "buffers": [
    {
      "byteLength": 163048,
      "uri": "data:application/octet-stream;base64,"
    }
  ],
  "accessors": [
    {
      "bufferView": 0,
      "componentType": 5126,
      "count": 816,
      "max": [
        2.545607089996338,
        2.676943063735962,
        2.296726942062378
      ],
      "min": [
        -1,
        -1,
        -2.4955830574035645
      ],
      "type": "VEC3"
    },
    {
      "bufferView": 1,
      "componentType": 5126,
      "count": 816,
      "max": [
        1,
        1,
        1
      ],
      "min": [
        -1,
        -1,
        -1
      ],
      "type": "VEC3"
    },
    {
      "bufferView": 2,
      "componentType": 5126,
      "count": 816,
      "max": [
        1,
        1
      ],
      "min": [
        0,
        0
      ],
      "type": "VEC2"
    },
    {
      "bufferView": 3,
      "componentType": 5123,
      "count": 816,
      "max": [
        815
      ],
      "min": [
        0
      ],
      "type": "SCALAR"
    },
    {
      "bufferView": 4,
      "componentType": 5126,
      "count": 1844,
      "max": [
        4.934632778167725,
        4.810418128967285,
        4.882109642028809
      ],
      "min": [
        -5.014838218688965,
        -4.90692138671875,
        -4.81451416015625
      ],
      "type": "VEC3"
    },
    {
      "bufferView": 5,
      "componentType": 5126,
      "count": 1844,
      "max": [
        1,
        0.9871596097946167,
        0.9907255172729492
      ],
      "min": [
        -1,
        -0.929724395275116,
        -0.9822610020637512
      ],
      "type": "VEC3"
    },
    {
      "bufferView": 6,
      "componentType": 5126,
      "count": 1844,
      "max": [
        0.9423031806945801,
        1
      ],
      "min": [
        0,
        0.10107827186584473
      ],
      "type": "VEC2"
    },
    {
      "bufferView": 7,
      "componentType": 5123,
      "count": 2355,
      "max": [
        1843
      ],
      "min": [
        0
      ],
      "type": "SCALAR"
    },
    {
      "bufferView": 8,
      "componentType": 5126,
      "count": 2096,
      "max": [
        5.045644760131836,
        4.810707092285156,
        4.882109642028809
      ],
      "min": [
        -4.940793991088867,
        -4.907489776611328,
        -4.301100730895996
      ],
      "type": "VEC3"
    },
    {
      "bufferView": 9,
      "componentType": 5126,
      "count": 2096,
      "max": [
        1,
        0.9994102120399475,
        0.973692774772644
      ],
      "min": [
        -0.99382483959198,
        -0.9876513481140137,
        -0.9911918640136719
      ],
      "type": "VEC3"
    },
    {
      "bufferView": 10,
      "componentType": 5126,
      "count": 2096,
      "max": [
        0.9354756474494934,
        1
      ],
      "min": [
        0,
        0.10077303647994995
      ],
      "type": "VEC2"
    },
    {
      "bufferView": 11,
      "componentType": 5123,
      "count": 2256,
      "max": [
        2095
      ],
      "min": [
        0
      ],
      "type": "SCALAR"
    }
  ],
  "materials": [
    {
      "pbrMetallicRoughness": {
        "baseColorFactor": [
          0.250980406999588,
          0.250980406999588,
          0.250980406999588,
          1
        ],
        "metallicFactor": 0.5,
        "roughnessFactor": 0.5
      },
      "name": "Material.002"
    },
    {
      "pbrMetallicRoughness": {
        "baseColorFactor": [
          0.2549019753932953,
          0.10588235408067703,
          0.10588235408067703,
          1
        ],
        "metallicFactor": 1,
        "roughnessFactor": 1
      },
      "doubleSided": true,
      "name": "water.001"
    },
    {
      "pbrMetallicRoughness": {
        "baseColorFactor": [
          0.027450980618596077,
          0.2549019753932953,
          0.0235294122248888,
          1
        ],
        "metallicFactor": 1,
        "roughnessFactor": 1
      },
      "doubleSided": true,
      "name": "land.001"
    }
  ],
  "meshes": [
    {
      "primitives": [
        {
          "mode": 4,
          "attributes": {
            "POSITION": 0,
            "NORMAL": 1,
            "TEXCOORD_0": 2
          },
          "indices": 3,
          "material": 0
        }
      ]
    },
    {
      "primitives": [
        {
          "mode": 4,
          "attributes": {
            "POSITION": 4,
            "NORMAL": 5,
            "TEXCOORD_0": 6
          },
          "indices": 7,
          "material": 1
        }
      ]
    },
    {
      "primitives": [
        {
          "mode": 4,
          "attributes": {
            "POSITION": 8,
            "NORMAL": 9,
            "TEXCOORD_0": 10
          },
          "indices": 11,
          "material": 2
        }
      ]
    }
  ]
}